<svg xmlns="http://www.w3.org/2000/svg" height="800" width="1200" viewBox="-53.4825 -13.425 463.515 80.55"><path d="M53.25 10.35v35.7H73.2l-2.7 6.9H44.55v-42.6h8.7m168 19.35c5.55-2.1 12-6.9 12-14.85 0-9.9-8.55-14.85-20.7-14.85h-15.9v52.95h9.45V31.2h5.55l14.7 21.75H237zm-10.5-5.25h-4.65V6.3h5.85c7.65 0 11.85 2.4 11.85 9 0 7.05-5.1 9.15-13.05 9.15m-120.9-14.1l1.35 3.3-16.5 39.3h8.1l3.6-8.7h18.75l3.75 8.7h9.6l-18.9-42.6zM89.1 37.8l6.45-15.75 6.6 15.75H89.1M28.05 24.6c4.65-1.5 9.15-5.1 9.15-11.7C37.2 0 21.6 0 16.65 0H0v52.95h15.9c9.3 0 24.3-2.25 24.3-15.3 0-7.2-4.35-11.85-12.15-13.05zM15.45 6.45c7.05 0 11.85.75 11.85 7.05 0 8.55-8.7 8.1-12.9 8.1H9.6V6.3zm.15 39.6l-6-.15V28.5h5.55c8.4 0 15.15 1.2 15.15 8.7 0 7.35-5.55 8.85-14.7 8.85m140.85-35.7h8.85v42.6h-8.85zm27.3 0l-18 20.4 18.15 22.2h10.05l-18.3-22.65 16.95-19.95h-8.85m-67.2 19.95c0 13.95 8.7 23.4 20.55 23.4 6.15 0 10.2-1.5 14.25-4.35l-2.1-4.2c-3.45 1.65-6.45 2.55-9.9 2.55-7.65 0-13.2-5.55-13.2-17.1 0-9.3 3.45-14.85 10.05-14.85 3.6 0 6.6 1.2 7.8 4.8l7.65-1.95c-.75-3-4.8-8.85-15.9-8.85-10.2 0-19.2 6.9-19.2 20.55M318.9 10.35h8.7v42.6h-8.7zm27.3 0l-18.15 20.4 18.15 22.2h10.35L338.1 30.3l16.95-19.95h-8.85M278.85 30.3c0 13.95 8.55 23.4 20.25 23.4 6.3 0 10.5-1.5 14.4-4.35l-2.1-4.2c-3.45 1.65-6.45 2.55-10.05 2.55-7.65 0-13.05-5.55-13.05-17.1 0-9.3 3.45-14.85 10.2-14.85 3.45 0 6.45 1.2 7.8 4.8l7.5-1.95c-.75-3-4.65-8.85-15.75-8.85-10.35 0-19.2 6.9-19.2 20.55"/><path d="M255.3 9.75c-11.55 0-19.95 6.9-19.95 21.9 0 15 7.95 22.05 19.95 22.05s19.95-7.05 19.95-22.05-8.4-21.9-19.95-21.9zm0 37.95c-8.85 0-10.95-7.2-10.95-16.05 0-8.7 2.1-16.2 10.95-16.2s10.95 7.5 10.95 16.2c0 8.85-2.1 16.05-10.95 16.05"/></svg>